<?xml version="1.0" encoding="UTF-8" standalone="no"?>
<!DOCTYPE svg PUBLIC "-//W3C//DTD SVG 1.1//EN" "http://www.w3.org/Graphics/SVG/1.1/DTD/svg11.dtd">
<svg width="100%" height="100%" viewBox="0 0 315 125" version="1.1" xmlns="http://www.w3.org/2000/svg" xmlns:xlink="http://www.w3.org/1999/xlink" xml:space="preserve" xmlns:serif="http://www.serif.com/" style="fill-rule:evenodd;clip-rule:evenodd;stroke-linejoin:round;stroke-miterlimit:2;">
    <g id="Laag_1" transform="matrix(1,0,0,1,0.00091555,0)">
        <g transform="matrix(1,0,0,1,0.00091555,0)">
            <rect x="0" y="0" width="314" height="125" style="fill:none;"/>
        </g>
        <g transform="matrix(1,0,0,1,132,0)">
            <rect x="0" y="0" width="50" height="100" style="fill:rgb(21,66,115);"/>
        </g>
        <g transform="matrix(1,0,0,1,131.968,0)">
            <path d="M25.904,77.363L25.033,77.363L25.033,74.95L25.904,74.95L25.904,77.363ZM29.827,66.724L28.957,66.724L28.957,64.31L29.827,64.31L29.827,66.724ZM13.712,62.562C13.646,62.562 13.196,62.563 13.196,62.656C13.196,62.749 13.405,62.701 13.712,62.753C14.408,62.872 14.683,63.222 15.172,63.222C15.615,63.222 16.068,62.921 15.892,62.279C15.863,62.172 15.8,62.197 15.786,62.27C15.718,62.557 15.366,62.721 14.995,62.721C14.535,62.721 14.436,62.562 13.712,62.562ZM8.92,64.973C8.996,65.08 9.817,66.145 8.557,66.552C8.501,66.571 8.482,66.625 8.566,66.661C9.497,67.049 9.948,66.334 9.948,66.334C10.416,67.406 9.698,68.001 9.698,68.001C9.799,68.194 10.244,68.517 10.92,68.668C11.176,68.531 11.536,68.269 11.686,67.865C11.686,67.865 11.868,68.333 11.702,68.78C13.604,68.953 14.277,67.433 15.742,67.706C15.785,67.714 15.804,67.687 15.804,67.642C15.804,66.705 15.23,64.991 13.416,64.643C11.607,64.294 12.094,63.551 12.094,63.551C12.857,63.517 13.297,63.849 13.297,63.849C13.437,63.62 13.24,63.374 13.24,63.374C13.313,63.286 13.354,62.976 13.354,62.976C12.495,62.974 12.269,62.79 12.269,62.79C12.137,62.281 12.491,61.56 13.767,62.331C14.085,62.047 14.061,61.615 14.061,61.615C14.158,61.57 14.217,61.418 14.217,61.354C14.217,61.141 13.197,60.57 12.935,60.502C12.872,60.193 12.476,59.747 11.277,59.908C10.71,59.978 10.301,59.829 10.492,59.499C10.524,59.443 10.423,59.433 10.37,59.487C10.238,59.618 10.057,59.989 10.554,60.238C11.103,60.516 11.137,61.068 11.141,61.148C11.15,61.265 11.01,61.275 10.979,61.158C10.725,60.227 9.453,60.027 8.7,60.522C8.744,61.02 9.28,61.349 9.574,61.349C9.743,61.349 9.977,61.181 9.977,60.949C9.977,60.836 10.035,60.851 10.068,60.938C10.193,61.27 9.703,61.954 8.974,61.538C8.233,62.279 8.529,63.193 8.603,63.53C8.736,64.135 8.44,64.721 7.895,64.448C7.867,64.435 7.839,64.424 7.839,64.489C7.839,64.87 8.335,65.3 8.92,64.973ZM13.003,61.235C12.657,61.621 12.093,61.533 11.958,60.896C12.669,60.859 12.974,60.93 13.003,61.235ZM35.072,62.721C34.7,62.721 34.349,62.557 34.281,62.27C34.266,62.197 34.203,62.172 34.175,62.279C33.999,62.921 34.452,63.222 34.895,63.222C35.384,63.222 35.659,62.872 36.354,62.753C36.661,62.701 36.87,62.749 36.87,62.656C36.87,62.563 36.42,62.562 36.354,62.562C35.63,62.562 35.531,62.721 35.072,62.721ZM42.227,64.489C42.227,64.424 42.2,64.435 42.172,64.448C41.627,64.721 41.331,64.135 41.464,63.53C41.538,63.193 41.834,62.279 41.093,61.538C40.364,61.954 39.874,61.27 39.998,60.938C40.032,60.851 40.089,60.836 40.089,60.949C40.089,61.181 40.323,61.349 40.492,61.349C40.786,61.349 41.322,61.02 41.367,60.522C40.614,60.027 39.342,60.227 39.088,61.158C39.057,61.275 38.916,61.265 38.925,61.148C38.93,61.068 38.963,60.516 39.513,60.238C40.009,59.989 39.828,59.618 39.697,59.487C39.643,59.433 39.542,59.443 39.574,59.499C39.766,59.829 39.357,59.978 38.79,59.908C37.591,59.747 37.195,60.193 37.132,60.502C36.869,60.57 35.85,61.141 35.85,61.354C35.85,61.418 35.909,61.57 36.006,61.615C36.006,61.615 35.982,62.047 36.3,62.331C37.575,61.56 37.929,62.281 37.798,62.79C37.798,62.79 37.572,62.974 36.713,62.976C36.713,62.976 36.754,63.286 36.827,63.374C36.827,63.374 36.63,63.62 36.77,63.849C36.77,63.849 37.21,63.517 37.973,63.551C37.973,63.551 38.46,64.294 36.65,64.643C34.837,64.991 34.263,66.705 34.263,67.642C34.263,67.687 34.282,67.714 34.324,67.706C35.79,67.433 36.462,68.953 38.365,68.78C38.199,68.333 38.381,67.865 38.381,67.865C38.531,68.269 38.891,68.531 39.147,68.668C39.822,68.517 40.267,68.194 40.368,68.001C40.368,68.001 39.651,67.406 40.119,66.334C40.119,66.334 40.57,67.049 41.501,66.661C41.585,66.625 41.565,66.571 41.51,66.552C40.249,66.145 41.07,65.08 41.147,64.973C41.732,65.3 42.227,64.87 42.227,64.489ZM38.109,60.896C37.973,61.533 37.41,61.621 37.064,61.235C37.093,60.93 37.398,60.859 38.109,60.896ZM24.699,50.212C24.699,50.373 24.768,50.513 24.823,50.592C24.935,50.751 24.918,50.838 24.865,50.891C24.813,50.945 24.724,50.962 24.565,50.85C24.486,50.795 24.346,50.726 24.186,50.726C23.911,50.726 23.775,50.906 23.775,51.06C23.775,51.214 23.911,51.394 24.186,51.394C24.346,51.394 24.486,51.325 24.565,51.269C24.724,51.158 24.813,51.175 24.865,51.228C24.918,51.28 24.84,51.832 24.779,52.266C24.325,52.361 24.106,52.725 24.106,52.937C24.106,53.483 24.69,53.799 25.033,53.982C25.376,53.799 25.961,53.483 25.961,52.937C25.961,52.725 25.742,52.361 25.288,52.266C25.226,51.832 25.149,51.28 25.201,51.228C25.254,51.175 25.342,51.158 25.502,51.269C25.58,51.325 25.72,51.394 25.88,51.394C26.155,51.394 26.291,51.214 26.291,51.06C26.291,50.906 26.155,50.726 25.88,50.726C25.72,50.726 25.58,50.795 25.502,50.85C25.342,50.962 25.254,50.945 25.201,50.891C25.149,50.838 25.131,50.751 25.243,50.592C25.298,50.513 25.368,50.373 25.368,50.212C25.368,49.938 25.187,49.801 25.033,49.801C24.879,49.801 24.699,49.938 24.699,50.212ZM25.033,54.273C24.665,54.273 24.367,54.57 24.367,54.939C24.367,55.306 24.665,55.604 25.033,55.604C25.401,55.604 25.699,55.306 25.699,54.939C25.699,54.57 25.401,54.273 25.033,54.273ZM25.033,60.684C27.702,60.684 29.207,61.193 29.207,61.193C29.222,59.845 29.213,59.093 29.986,59.206C29.563,58.073 31.384,57.629 31.384,56.152C31.384,55.18 30.696,55.07 30.493,55.07C29.889,55.07 29.984,55.462 29.47,55.462C29.406,55.462 29.34,55.447 29.34,55.493C29.34,55.663 29.485,55.953 29.721,55.953C30.036,55.953 30.043,55.638 30.277,55.638C30.379,55.638 30.524,55.72 30.524,56.044C30.524,56.671 30.113,57.367 29.628,57.906C29.516,57.752 29.364,57.657 29.183,57.657C28.896,57.657 28.643,57.956 28.643,58.326C28.643,58.463 28.665,58.563 28.715,58.678C28.553,58.768 28.409,58.82 28.301,58.82C28.082,58.82 27.752,58.731 27.752,58.251C27.752,57.182 29.186,56.24 29.186,54.884C29.186,54.237 28.754,53.592 27.85,53.592C26.881,53.592 27.062,54.477 26.223,54.477C26.185,54.477 26.154,54.489 26.154,54.523C26.154,54.579 26.3,55.069 26.733,55.069C27.198,55.069 27.328,54.266 27.739,54.266C27.893,54.266 28.122,54.356 28.122,54.9C28.122,55.323 27.913,56.006 27.612,56.662C27.503,56.553 27.355,56.473 27.189,56.473C26.83,56.473 26.572,56.821 26.572,57.236C26.572,57.499 26.675,57.752 26.853,57.919C26.642,58.19 26.426,58.41 26.132,58.41C25.553,58.41 25.297,58.081 25.297,57.723C25.297,57.335 26.004,57.195 26.004,56.59C26.004,56.179 25.737,55.947 25.48,55.947C25.203,55.947 25.061,56.13 25.033,56.13C25.005,56.13 24.863,55.947 24.586,55.947C24.329,55.947 24.062,56.179 24.062,56.59C24.062,57.195 24.769,57.335 24.769,57.723C24.769,58.081 24.513,58.41 23.935,58.41C23.641,58.41 23.424,58.19 23.213,57.919C23.391,57.752 23.495,57.499 23.495,57.236C23.495,56.821 23.237,56.473 22.877,56.473C22.711,56.473 22.564,56.553 22.455,56.662C22.154,56.006 21.945,55.323 21.945,54.9C21.945,54.356 22.174,54.266 22.328,54.266C22.738,54.266 22.869,55.069 23.334,55.069C23.767,55.069 23.913,54.579 23.913,54.523C23.913,54.489 23.881,54.477 23.843,54.477C23.005,54.477 23.185,53.592 22.217,53.592C21.313,53.592 20.881,54.237 20.881,54.884C20.881,56.24 22.315,57.182 22.315,58.251C22.315,58.731 21.985,58.82 21.766,58.82C21.657,58.82 21.514,58.768 21.351,58.678C21.401,58.563 21.423,58.463 21.423,58.326C21.423,57.956 21.171,57.657 20.884,57.657C20.702,57.657 20.551,57.752 20.439,57.906C19.953,57.367 19.543,56.671 19.543,56.044C19.543,55.72 19.688,55.638 19.789,55.638C20.024,55.638 20.031,55.953 20.346,55.953C20.582,55.953 20.726,55.663 20.726,55.493C20.726,55.447 20.661,55.462 20.597,55.462C20.082,55.462 20.178,55.07 19.574,55.07C19.37,55.07 18.683,55.18 18.683,56.152C18.683,57.629 20.504,58.073 20.081,59.206C20.854,59.093 20.844,59.845 20.859,61.193C20.859,61.193 22.365,60.684 25.033,60.684ZM20.141,62.675C19.414,62.834 18.893,62.984 18.66,63.055C18.672,62.734 18.794,62.437 19.079,62.371C19.116,62.362 19.125,62.313 19.091,62.29C18.444,61.86 18.097,62.684 18.087,62.71C17.858,62.693 17.508,62.765 17.508,63.075C17.508,64.002 15.387,64.517 14.896,64.593C15.762,64.927 16.123,66.019 16.123,66.019C16.752,65.39 17.487,64.835 17.649,64.835C17.816,64.835 17.88,65.045 17.893,65.17C17.897,65.211 17.935,65.224 17.961,65.188C18.29,64.698 18.132,64.586 18.106,64.442C18.085,64.327 18.118,63.898 18.598,63.948L18.598,70.136L18.351,70.185C18.238,70.205 17.333,69.436 16.297,68.719C15.261,68.003 14.705,68.432 13.523,69.071C11.977,69.908 10.414,69.149 10.414,69.149C9.08,70.102 8.627,72.855 8.627,72.855C8.361,72.97 7.921,73.089 7.504,73.089C6.486,73.089 6.299,72.473 6.299,72.105C6.299,70.534 8.266,69.86 8.266,68.312C8.266,67.937 8.093,66.409 6.203,66.409C5.961,66.409 4.519,66.406 4.512,66.406C3.804,66.406 3.627,65.897 3.529,65.702C3.491,65.626 3.419,65.67 3.446,65.73C3.501,65.86 3.365,66.057 3.365,66.45C3.365,67.079 3.734,67.457 4.422,67.457C4.735,67.457 5.029,67.368 5.125,67.311C5.189,67.274 5.222,67.335 5.193,67.369C4.893,67.719 4.869,68.375 4.992,68.534C5.021,68.572 5.058,68.562 5.065,68.531C5.231,67.867 5.853,67.239 6.691,67.239C7.716,67.239 7.711,68.111 7.711,68.321C7.711,69.582 5.498,70.506 5.498,72.239C5.498,73.996 7.354,74.373 8.43,74.094C8.367,75.853 6.353,76.453 6.292,75.194C6.288,75.134 6.244,75.12 6.211,75.199C5.957,75.821 6.057,76.368 6.841,76.542C6.894,76.555 6.869,76.584 6.82,76.617C6.044,77.111 6.465,79.05 6.503,79.621C6.561,80.443 5.744,80.345 5.677,80.321C5.643,80.308 5.61,80.325 5.662,80.39C6.242,81.101 6.958,80.451 6.958,80.451C7.499,80.621 7.164,81.082 6.803,81.324C6.746,81.362 6.751,81.399 6.812,81.403C6.893,81.409 7.731,81.479 7.88,80.812C8.251,81.255 8.796,81.093 8.911,81.035C9.072,80.952 9.856,80.667 9.935,81.549C9.939,81.613 9.977,81.572 10.002,81.539C10.595,80.793 9.96,80.333 9.607,80.279C9.636,80.237 10.111,79.843 10.538,80.39C10.567,80.427 10.594,80.435 10.599,80.361C10.648,79.415 9.879,79.329 9.381,79.74C9.358,79.643 9.192,79.111 9.944,79.13C9.962,79.13 9.998,79.103 9.96,79.066C9.376,78.449 8.896,79.01 8.785,79.144C8.525,79.451 7.877,79.329 7.818,79.321C8.021,76.034 10.916,77.198 11.314,75.601C11.333,75.516 11.371,75.548 11.379,75.579C11.488,75.969 12.471,76.023 12.651,75.255C12.661,75.207 12.655,75.17 12.621,75.206C11.783,76.043 9.895,73.426 12.471,71.299C14.67,69.486 16.641,70.497 17.391,71.094C17.431,71.357 17.274,71.441 17.174,71.473C17.138,71.484 17.127,71.517 17.184,71.54C17.394,71.619 17.689,71.594 17.827,71.398C18.3,71.728 17.895,72.143 17.704,72.259C17.656,72.289 17.677,72.321 17.717,72.329C18.151,72.407 18.508,71.964 18.525,71.709L18.598,71.751L18.598,73.618C18.598,76.278 21.666,76.647 25.033,78.902C28.4,76.647 31.468,76.278 31.468,73.618L31.468,71.751L31.542,71.709C31.559,71.964 31.916,72.407 32.35,72.329C32.39,72.321 32.411,72.289 32.363,72.259C32.172,72.143 31.767,71.728 32.24,71.398C32.378,71.594 32.673,71.619 32.883,71.54C32.939,71.517 32.929,71.484 32.892,71.473C32.793,71.441 32.636,71.357 32.676,71.094C33.426,70.497 35.397,69.486 37.596,71.299C40.172,73.426 38.284,76.043 37.446,75.206C37.411,75.17 37.406,75.207 37.416,75.255C37.596,76.023 38.579,75.969 38.688,75.579C38.696,75.548 38.734,75.516 38.753,75.601C39.151,77.198 42.046,76.034 42.249,79.321C42.19,79.329 41.542,79.451 41.282,79.144C41.171,79.01 40.691,78.449 40.107,79.066C40.069,79.103 40.104,79.13 40.123,79.13C40.875,79.111 40.709,79.643 40.685,79.74C40.188,79.329 39.418,79.415 39.468,80.361C39.472,80.435 39.5,80.427 39.529,80.39C39.956,79.843 40.431,80.237 40.46,80.279C40.107,80.333 39.472,80.793 40.065,81.539C40.09,81.572 40.127,81.613 40.132,81.549C40.21,80.667 40.994,80.952 41.156,81.035C41.271,81.093 41.816,81.255 42.187,80.812C42.336,81.479 43.174,81.409 43.255,81.403C43.315,81.399 43.32,81.362 43.264,81.324C42.903,81.082 42.568,80.621 43.109,80.451C43.109,80.451 43.825,81.101 44.405,80.39C44.456,80.325 44.423,80.308 44.39,80.321C44.323,80.345 43.505,80.443 43.564,79.621C43.602,79.05 44.023,77.111 43.247,76.617C43.198,76.584 43.172,76.555 43.226,76.542C44.01,76.368 44.11,75.821 43.856,75.199C43.823,75.12 43.779,75.134 43.775,75.194C43.714,76.453 41.7,75.853 41.637,74.094C42.712,74.373 44.569,73.996 44.569,72.239C44.569,70.506 42.355,69.582 42.355,68.321C42.355,68.111 42.35,67.239 43.376,67.239C44.213,67.239 44.835,67.867 45.002,68.531C45.008,68.562 45.046,68.572 45.075,68.534C45.198,68.375 45.174,67.719 44.874,67.369C44.844,67.335 44.878,67.274 44.942,67.311C45.037,67.368 45.332,67.457 45.645,67.457C46.332,67.457 46.702,67.079 46.702,66.45C46.702,66.057 46.566,65.86 46.621,65.73C46.648,65.67 46.575,65.626 46.538,65.702C46.439,65.897 46.262,66.406 45.555,66.406C45.548,66.406 44.106,66.409 43.863,66.409C41.973,66.409 41.8,67.937 41.8,68.312C41.8,69.86 43.767,70.534 43.767,72.105C43.767,72.473 43.58,73.089 42.562,73.089C42.145,73.089 41.705,72.97 41.44,72.855C41.44,72.855 40.987,70.102 39.653,69.149C39.653,69.149 38.089,69.908 36.544,69.071C35.362,68.432 34.805,68.003 33.769,68.719C32.733,69.436 31.828,70.205 31.716,70.185L31.468,70.136L31.468,63.948C31.949,63.898 31.982,64.327 31.961,64.442C31.935,64.586 31.777,64.698 32.106,65.188C32.131,65.224 32.169,65.211 32.173,65.17C32.187,65.045 32.25,64.835 32.417,64.835C32.579,64.835 33.315,65.39 33.944,66.019C33.944,66.019 34.305,64.927 35.171,64.593C34.679,64.517 32.558,64.002 32.558,63.075C32.558,62.765 32.209,62.693 31.98,62.71C31.969,62.684 31.622,61.86 30.975,62.29C30.941,62.313 30.95,62.362 30.987,62.371C31.273,62.437 31.395,62.734 31.407,63.055C30.789,62.866 28.156,62.127 25.033,62.127C23.518,62.127 22.121,62.302 21.011,62.502L21.011,64.647L20.141,64.647L20.141,62.675M14.38,84.648C14.149,84.555 13.996,84.407 13.996,84.103L13.996,82.771C13.615,82.637 12.572,82.239 10.491,82.239C8.761,82.239 8.219,82.629 8.194,82.767L7.734,85.303C7.734,85.303 8.434,84.663 10.943,84.827C13.965,85.019 17.095,86.802 17.095,84.901L17.095,83.783C14.727,83.783 14.38,84.536 14.38,84.648ZM32.972,83.783L32.972,84.901C32.972,86.802 36.102,85.019 39.124,84.827C41.632,84.663 42.333,85.303 42.333,85.303L41.873,82.767C41.848,82.629 41.306,82.239 39.576,82.239C37.495,82.239 36.451,82.637 36.071,82.771L36.071,84.103C36.071,84.407 35.918,84.555 35.687,84.648C35.687,84.536 35.34,83.783 32.972,83.783ZM25.033,82.632C29.899,82.632 34.84,82.886 35.486,83.62C35.537,83.678 35.559,83.619 35.559,83.575L35.56,80.996C35.56,80.244 30.462,79.806 25.033,79.806C19.604,79.806 14.507,80.244 14.507,80.996L14.508,83.575C14.508,83.619 14.53,83.678 14.581,83.62C15.227,82.886 20.168,82.632 25.033,82.632ZM20.694,70.473L20.202,70.346L20.161,70.407L19.59,70.156C19.59,70.156 20.011,70.153 20.1,70.152C20.148,70.152 20.151,70.122 20.126,70.098C19.893,69.87 19.69,69.671 19.69,69.671C19.69,69.671 19.922,69.757 20.253,69.88C20.291,69.893 20.305,69.866 20.287,69.84C20.128,69.605 19.911,69.29 19.911,69.29C19.911,69.29 20.371,69.598 20.464,69.66C20.494,69.681 20.518,69.661 20.505,69.631C20.383,69.327 20.244,68.983 20.244,68.983L20.748,69.46C20.771,69.481 20.797,69.469 20.791,69.437C20.742,69.21 20.651,68.79 20.651,68.79L21.021,69.331C21.043,69.363 21.071,69.354 21.072,69.316C21.074,69.21 21.084,68.725 21.084,68.725C21.084,68.725 21.24,69.083 21.319,69.266C21.335,69.303 21.362,69.306 21.382,69.258C21.407,69.2 21.573,68.8 21.573,68.8L21.595,69.416L21.512,69.432L21.409,70.173C22.144,70.001 23.059,68.745 23.761,68.745C24.596,68.745 24.9,69.724 26.445,69.227C26.834,69.804 26.971,70.306 27.121,71C27.717,71.561 28.555,71.374 28.555,70.78C28.555,69.98 27.682,69.827 27.682,68.993C27.682,68.62 27.944,68.084 28.656,68.084C29.033,68.084 29.585,68.246 29.903,68.246C30.28,68.246 30.361,67.973 30.403,67.86C30.438,67.775 30.54,67.803 30.53,67.869C30.518,67.947 30.574,68.056 30.574,68.235C30.574,68.763 29.806,68.832 29.711,68.767C29.671,68.739 29.642,68.782 29.671,68.804C29.786,68.897 29.76,69.212 29.623,69.412C29.607,69.434 29.585,69.43 29.581,69.409C29.498,69.031 29.055,68.564 28.664,68.564C28.52,68.564 28.234,68.648 28.234,68.979C28.234,69.454 29.185,69.887 29.185,70.871C29.185,71.894 28.172,72.139 27.153,71.884C27.188,72.853 28.634,73.429 28.668,72.736C28.67,72.688 28.696,72.718 28.711,72.737C28.925,73.033 28.827,73.259 28.554,73.373C28.806,73.487 28.851,73.995 28.925,74.299C29.036,74.754 29.519,74.502 29.543,74.488C29.569,74.473 29.578,74.487 29.567,74.516C29.384,74.99 28.899,74.811 28.899,74.811C28.644,74.99 28.952,75.15 29.183,75.219C29.217,75.229 29.215,75.254 29.188,75.264C29.018,75.327 28.654,75.441 28.477,75.136C28.346,75.451 28.077,75.442 27.973,75.442C27.787,75.442 27.663,75.633 27.706,75.888C27.71,75.91 27.694,75.917 27.678,75.904C27.234,75.609 27.489,75.263 27.668,75.177C27.637,75.158 27.331,75.031 27.201,75.389C27.191,75.417 27.174,75.418 27.164,75.392C26.97,74.876 27.393,74.726 27.698,74.856C27.677,74.783 27.517,74.531 27.116,74.612C27.098,74.617 27.086,74.609 27.098,74.584C27.163,74.426 27.362,74.193 27.726,74.429C27.912,74.544 28.233,74.376 28.262,74.361C27.615,73.073 26.357,74.151 26.076,73.142C26.071,73.121 26.046,73.102 26.028,73.158C25.961,73.373 25.413,73.387 25.312,72.964C25.304,72.931 25.317,72.927 25.338,72.948C25.418,73.029 25.591,73.102 25.817,72.775C25.967,72.558 25.989,72.269 25.989,72.073C25.989,71.289 25.206,69.974 23.985,69.974C23.214,69.974 22.385,70.275 21.77,70.724L22.343,70.855C22.288,71.435 21.731,71.772 21.219,71.63L21.308,70.967C21.219,70.994 20.994,71.074 20.874,71.245C20.866,71.258 20.848,71.254 20.844,71.24C20.739,70.864 21.049,70.675 21.146,70.626C21.157,70.619 21.156,70.611 21.136,70.611C20.858,70.6 20.702,70.805 20.658,70.875C20.651,70.886 20.639,70.883 20.635,70.874C20.613,70.805 20.564,70.611 20.694,70.473ZM22.396,74.951C22.176,75.219 21.984,74.963 21.696,74.963C21.425,74.963 21.38,75.19 21.373,75.28C21.372,75.296 21.362,75.303 21.351,75.286C21.044,74.866 21.387,74.638 21.587,74.608C21.558,74.579 21.256,74.376 21.064,74.654C21.049,74.674 21.031,74.665 21.031,74.641C21.021,74.121 21.434,74.084 21.706,74.312C21.755,74.116 21.628,73.983 21.408,73.972C21.381,73.972 21.377,73.955 21.388,73.943C21.48,73.844 21.569,73.799 21.659,73.799C21.949,73.799 21.986,74.165 22.175,74.165C22.459,74.165 22.86,73.783 22.899,73.742C22.891,73.72 22.619,72.985 22.673,72.545C22.676,72.526 22.666,72.524 22.653,72.532C22.516,72.609 22.168,72.606 22.168,72.178C22.168,72.143 22.178,72.141 22.197,72.168C22.35,72.379 22.597,72.142 22.721,72.003C22.855,71.854 23.568,70.814 24.521,70.814C24.731,70.815 25.002,70.929 25.219,71.081C24.89,71.481 25.217,71.865 25.461,71.815C25.489,71.81 25.494,71.837 25.467,71.846C24.208,72.32 23.645,72.509 23.645,73.564C23.645,74.114 23.833,74.419 24.156,74.348C24.181,74.341 24.187,74.352 24.17,74.37C24.053,74.51 23.918,74.556 23.806,74.556C23.544,74.556 23.497,74.413 23.357,74.413C23.212,74.413 22.743,74.689 22.743,74.92C22.743,75.007 22.798,75.125 22.964,75.234C22.975,75.241 22.969,75.25 22.96,75.251C22.854,75.271 22.482,75.303 22.396,74.951ZM25.713,64.698C25.319,64.674 25.067,64.761 25.079,64.887C25.27,65.089 25.525,65.066 25.713,64.698ZM24.259,65.671C24.537,65.601 24.844,65.634 24.876,65.645C24.92,65.659 24.919,65.726 24.869,65.732C24.289,65.807 24.262,66.073 23.892,66.073C23.648,66.073 23.384,65.828 23.483,65.466C23.496,65.419 23.533,65.418 23.543,65.462C23.58,65.618 23.806,65.788 24.259,65.671ZM16.73,78.529C17.114,79.021 17.483,78.558 17.986,78.558C18.232,78.558 18.532,78.642 18.589,79.135C18.591,79.16 18.613,79.168 18.637,79.135C19.186,78.384 18.56,77.961 18.2,77.907C18.278,77.836 18.815,77.506 19.155,77.994C19.174,78.021 19.211,78.013 19.211,77.976C19.211,77.026 18.499,76.96 17.984,77.371C17.887,77.001 18.166,76.757 18.525,76.757C18.568,76.757 18.583,76.727 18.561,76.702C17.925,76.02 17.449,76.877 17.341,77.014C17.086,77.352 16.178,76.717 15.815,76.339C15.815,76.339 16.618,75.498 16.618,74.728C16.618,74.683 16.613,74.618 16.613,74.592C16.613,74.568 16.623,74.559 16.645,74.572C16.725,74.617 16.838,74.65 16.941,74.649C17.125,74.649 17.472,74.591 17.472,73.938C17.472,73.889 17.449,73.891 17.428,73.921C17.333,74.059 17.227,74.089 17.146,74.089C16.498,74.089 15.145,71.927 13.549,71.927C13.132,71.927 12.343,72.228 11.944,72.659C12.137,72.773 12.174,73.007 12.154,73.178C12.125,73.452 11.907,73.588 11.684,73.65C11.645,73.659 11.641,73.688 11.684,73.706C12.49,74.014 13.957,74.569 14.29,74.856C14.684,75.195 14.607,75.84 14.378,76.727C14.158,77.58 13.686,77.464 13.512,77.436C13.487,77.432 13.478,77.448 13.494,77.468C13.703,77.73 13.955,77.818 14.172,77.818C14.591,77.818 14.747,77.558 14.964,77.558C15.329,77.558 16.092,78.081 16.092,78.478C16.092,78.701 15.918,78.904 15.693,79.05C15.678,79.061 15.681,79.078 15.703,79.082C15.877,79.111 16.592,79.172 16.73,78.529ZM34.363,79.082C34.385,79.078 34.388,79.061 34.374,79.05C34.149,78.904 33.974,78.701 33.974,78.478C33.974,78.081 34.737,77.558 35.102,77.558C35.319,77.558 35.476,77.818 35.894,77.818C36.111,77.818 36.364,77.73 36.573,77.468C36.588,77.448 36.579,77.432 36.555,77.436C36.381,77.464 35.909,77.58 35.689,76.727C35.46,75.84 35.383,75.195 35.777,74.856C36.11,74.569 37.576,74.014 38.383,73.706C38.426,73.688 38.422,73.659 38.383,73.65C38.16,73.588 37.942,73.452 37.913,73.178C37.893,73.007 37.929,72.773 38.123,72.659C37.724,72.228 36.934,71.927 36.518,71.927C34.922,71.927 33.568,74.089 32.92,74.089C32.839,74.089 32.734,74.059 32.639,73.921C32.618,73.891 32.595,73.889 32.595,73.938C32.595,74.591 32.941,74.649 33.125,74.649C33.229,74.65 33.341,74.617 33.422,74.572C33.443,74.559 33.453,74.568 33.453,74.592C33.453,74.618 33.448,74.683 33.448,74.728C33.448,75.498 34.252,76.339 34.252,76.339C33.888,76.717 32.98,77.352 32.726,77.014C32.618,76.877 32.141,76.02 31.506,76.702C31.484,76.727 31.499,76.757 31.542,76.757C31.9,76.757 32.179,77.001 32.083,77.371C31.568,76.96 30.856,77.026 30.856,77.976C30.856,78.013 30.893,78.021 30.912,77.994C31.251,77.506 31.789,77.836 31.866,77.907C31.506,77.961 30.881,78.384 31.43,79.135C31.454,79.168 31.475,79.16 31.478,79.135C31.535,78.642 31.835,78.558 32.08,78.558C32.584,78.558 32.952,79.021 33.337,78.529C33.475,79.172 34.19,79.111 34.363,79.082ZM21.449,66.608C21.398,66.678 21.23,66.605 21.166,66.576C21.151,66.569 21.149,66.576 21.154,66.586C21.195,66.677 21.356,66.947 21.597,66.947C21.705,66.947 21.864,66.884 21.909,66.811C21.909,66.811 22.849,67.116 23.314,67.244C23.133,67.484 23.021,67.774 22.998,68.088C22.623,67.857 21.124,67.053 21.124,67.053L20.659,67.689C20.582,67.794 20.21,67.523 20.287,67.417L20.642,66.931C20.525,66.807 20.242,66.885 20.165,66.907C20.154,66.91 20.144,66.905 20.154,66.886C20.199,66.791 20.375,66.496 20.817,66.629C20.819,66.36 20.417,66.446 20.312,66.475C20.299,66.478 20.295,66.472 20.307,66.46C20.415,66.344 20.742,66.08 21.107,66.296L21.266,66.077L20.945,65.739L21.146,65.462L21.372,65.765L23.103,63.395C23.145,63.337 23.488,63.237 23.618,63.209C23.631,63.342 23.646,63.697 23.605,63.756L21.902,66.147L22.261,66.266L22.063,66.544L21.639,66.346L21.449,66.608ZM27.519,66.22C27.519,66.438 27.653,66.756 27.944,66.665C27.958,66.658 27.972,66.662 27.968,66.677C27.924,66.919 27.491,67.141 27.294,66.854C27.119,67.224 27.159,67.571 27.538,67.775C27.558,67.787 27.562,67.813 27.539,67.831C27.313,67.995 26.962,67.958 26.798,67.642C26.487,67.876 26.532,68.375 26.721,68.544C26.721,68.547 25.861,69.055 25.081,68.692C24.564,68.444 24.143,68.127 23.476,68.178C23.568,67.243 24.036,66.996 24.896,66.862C25.583,66.751 25.67,66.435 25.572,66.197C25.339,66.134 24.911,66.349 24.911,66.349C24.834,66.22 24.946,66.086 24.946,66.086C24.903,66.035 24.882,65.862 24.882,65.862C25.362,65.862 25.447,65.756 25.447,65.756C25.533,65.256 25.024,65.203 24.636,65.472C24.455,65.313 24.484,65.101 24.484,65.101C24.431,65.074 24.397,64.991 24.397,64.955C24.397,64.837 24.966,64.516 25.113,64.479C25.15,64.313 25.357,64.083 25.962,64.138C26.034,63.977 25.917,63.392 25.843,63.234C25.819,63.187 25.853,63.16 25.906,63.193C26.118,63.327 26.328,63.821 26.471,63.83C26.471,63.83 27.152,63.473 27.185,63.493C27.217,63.512 27.314,64.272 27.314,64.272C27.404,64.383 27.929,64.274 28.159,64.373C28.217,64.398 28.214,64.44 28.163,64.448C27.991,64.477 27.443,64.713 27.353,64.865C27.667,65.336 27.519,66.029 27.519,66.22Z" style="fill:white;fill-rule:nonzero;"/>
        </g>
    </g>
    <g id="Isolatiemodus">
    </g>
</svg>
